<svg xmlns="http://www.w3.org/2000/svg" viewBox="0 0 64 64" role="img" aria-labelledby="title">
  <title id="title">WAN VOYAGE</title>
  <rect width="64" height="64" rx="18" fill="#3e2a23"/>
  <path d="M20 16c-5 2-8 8-6 14 2 5 6 9 11 10-1 5 1 9 7 10 6-1 8-5 7-10 5-1 9-5 11-10 2-6-1-12-6-14-4 2-7 6-8 10-2-4-4-7-8-10Z" fill="#f5efe7"/>
  <path d="M24 46c-4 5-1 9 8 10 9-1 12-5 8-10-4-2-12-2-16 0Z" fill="#c46d4f"/>
  <circle cx="29" cy="29" r="2" fill="#3e2a23"/><circle cx="38" cy="29" r="2" fill="#3e2a23"/>
  <path d="M31 34c2 2 4 2 6 0" fill="none" stroke="#3e2a23" stroke-linecap="round" stroke-width="2"/>
</svg>
